<?xml version="1.0" encoding="UTF-8"?>
<svg width="23px" height="23px" viewBox="0 0 23 23" version="1.1" xmlns="http://www.w3.org/2000/svg" xmlns:xlink="http://www.w3.org/1999/xlink">
    <title>instagram-square-brands</title>
    <defs>
        <filter id="filter-1">
            <feColorMatrix in="SourceGraphic" type="matrix" values="0 0 0 0 0.737255 0 0 0 0 0.694118 0 0 0 0 0.627451 0 0 0 1.000000 0"></feColorMatrix>
        </filter>
    </defs>
    <g id="Design-Update" stroke="none" stroke-width="1" fill="none" fill-rule="evenodd">
        <g id="Mobile" transform="translate(-94.000000, -4088.000000)">
            <g id="footer" transform="translate(-6.000000, 3719.000000)">
                <g id="instagram-square-brands" transform="translate(22.000000, 369.000000)" filter="url(#filter-1)">
                    <g transform="translate(78.000000, 0.000000)">
                        <path d="M11,8.380625 C9.55348711,8.38116737 8.38124568,9.55414157 8.38160714,11.0006545 C8.38196877,12.4471675 9.55479642,13.6195555 11.0013094,13.6193748 C12.4478224,13.6191941 13.6203571,12.446513 13.6203571,11 C13.6192733,9.55342485 12.4465755,8.38116659 11,8.380625 L11,8.380625 Z M17.1241518,6.36723214 C16.8546116,5.68415125 16.3138845,5.14342408 15.6308036,4.87388393 C14.5995536,4.46678571 12.1441964,4.558125 11,4.558125 C9.85580357,4.558125 7.40290179,4.46334821 6.36870536,4.87388393 C5.68562446,5.14342408 5.1448973,5.68415125 4.87535714,6.36723214 C4.46875,7.39848214 4.55959821,9.85629464 4.55959821,10.9995089 C4.55959821,12.1427232 4.46875,14.5975893 4.87732143,15.6322768 C5.14686158,16.3153577 5.68758875,16.8560848 6.37066964,17.125625 C7.40191964,17.5327232 9.85727679,17.4413839 11.0019643,17.4413839 C12.1466518,17.4413839 14.5985714,17.5361607 15.6327679,17.125625 C16.3158488,16.8560848 16.8565759,16.3153577 17.1261161,15.6322768 C17.5361607,14.6010268 17.441875,12.1432143 17.441875,11 C17.441875,9.85678571 17.5361607,7.40241071 17.1261161,6.36772321 L17.1241518,6.36723214 Z M11,15.0267887 C8.77606766,15.0267887 6.97321429,13.2239323 6.97321429,11 C6.97321429,8.77606766 8.77606766,6.97321429 11,6.97321429 C13.2239323,6.97321429 15.0267887,8.77606766 15.0267887,11 C15.028091,12.0683696 14.6042607,13.0933569 13.8488088,13.8488088 C13.0933569,14.6042607 12.0683696,15.028091 11,15.0267887 L11,15.0267887 Z M15.1927679,7.74419643 C14.8125648,7.74439507 14.4696886,7.51551916 14.3240535,7.16431437 C14.1784185,6.81310958 14.258712,6.4087567 14.5274859,6.13984229 C14.7962598,5.87092788 15.2005707,5.79042306 15.5518515,5.93587456 C15.9031324,6.08132606 16.1321957,6.42408264 16.1321957,6.80428571 C16.133232,7.05363947 16.0349416,7.29314569 15.8590355,7.46988114 C15.6831293,7.64661659 15.4440881,7.74603235 15.1947321,7.74616071 L15.1927679,7.74419643 Z M19.6428571,0 L2.35714286,0 C1.0553288,0 0,1.0553288 0,2.35714286 L0,19.6428571 C0,20.9446712 1.0553288,22 2.35714286,22 L19.6428571,22 C20.9446712,22 22,20.9446712 22,19.6428571 L22,2.35714286 C22,1.0553288 20.9446712,0 19.6428571,0 L19.6428571,0 Z M18.8021429,14.2410714 C18.7387946,15.4996875 18.4515179,16.6149107 17.5327232,17.53125 C16.6139286,18.4475893 15.4996875,18.7407589 14.2425446,18.8006696 C12.945625,18.8738393 9.05732143,18.8738393 7.76040179,18.8006696 C6.50178571,18.7373214 5.39049107,18.4495536 4.47022321,17.53125 C3.54995536,16.6129464 3.26071429,15.4972321 3.20080357,14.2410714 C3.12763393,12.9436607 3.12763393,9.05486607 3.20080357,7.75892857 C3.26415179,6.5003125 3.54799107,5.38508929 4.47022321,4.46875 C5.39245536,3.55241071 6.50669643,3.26267857 7.76040179,3.20276786 C9.05732143,3.12959821 12.945625,3.12959821 14.2425446,3.20276786 C15.5011607,3.26611607 16.6158929,3.55388393 17.5327232,4.4721875 C18.4495536,5.39049107 18.7422321,6.50620536 18.8021429,7.76482143 C18.8753125,9.05732143 18.8753125,12.9426786 18.8021429,14.2410714 Z" id="Shape" fill="#FFFFFF" fill-rule="nonzero"></path>
                    </g>
                </g>
            </g>
        </g>
    </g>
</svg>