<?xml version="1.0" encoding="UTF-8"?>
<svg width="21px" height="21px" viewBox="0 0 21 21" version="1.1" xmlns="http://www.w3.org/2000/svg" xmlns:xlink="http://www.w3.org/1999/xlink">
    <title>location-arrow-light</title>
    <defs>
        <filter id="filter-1">
            <feColorMatrix in="SourceGraphic" type="matrix" values="0 0 0 0 0.682353 0 0 0 0 0.741176 0 0 0 0 0.674510 0 0 0 1.000000 0"></feColorMatrix>
        </filter>
    </defs>
    <g id="Design-Update" stroke="none" stroke-width="1" fill="none" fill-rule="evenodd">
        <g id="Mobile" transform="translate(-18.000000, -3807.000000)">
            <g id="footer" transform="translate(-6.000000, 3719.000000)">
                <g id="location-arrow-light" transform="translate(24.000000, 88.000000)" filter="url(#filter-1)">
                    <g transform="translate(0.000260, 0.000000)">
                        <path d="M18.042602,0 C17.818772,0 17.5898639,0.0451171875 17.3632995,0.144375 L1.12215079,8.01486328 C-0.751692691,8.93320313 -0.127078197,11.8190625 1.87176631,11.8190625 L8.743307,11.8190625 L8.743307,19.0341211 C8.743307,20.265 9.68901788,21 10.6472289,21 C11.3230156,21 12.0046619,20.6349609 12.3663836,19.8212109 L19.8625388,2.76773437 C20.3926212,1.43103516 19.3019873,0 18.042602,0 Z M18.7281545,2.218125 L11.2339524,19.2666797 C11.1097326,19.5464062 10.9120748,19.6883203 10.6468382,19.6883203 C10.4202739,19.6883203 9.99214536,19.5517383 9.99214536,19.0345312 L9.99214536,10.5073828 L1.87176631,10.5073828 C1.42449702,10.5073828 1.29988662,10.1452148 1.26668323,9.98935547 C1.22371412,9.78714844 1.21707344,9.41595703 1.64559258,9.20595703 L17.8441628,1.35515625 C17.9109603,1.32603516 17.9758045,1.31208984 18.0429926,1.31208984 C18.2547131,1.31208984 18.4918244,1.46179687 18.6332318,1.68451172 C18.7187794,1.81945312 18.8019832,2.02945312 18.7281545,2.218125 Z" id="Shape" fill="#EE6C4D" fill-rule="nonzero"></path>
                    </g>
                </g>
            </g>
        </g>
    </g>
</svg>