<?xml version="1.0" encoding="UTF-8"?>
<svg width="16px" height="27px" viewBox="0 0 16 27" version="1.1" xmlns="http://www.w3.org/2000/svg" xmlns:xlink="http://www.w3.org/1999/xlink">
    <title>mobile-android-light</title>
    <defs>
        <filter id="filter-1">
            <feColorMatrix in="SourceGraphic" type="matrix" values="0 0 0 0 0.682353 0 0 0 0 0.741176 0 0 0 0 0.674510 0 0 0 1.000000 0"></feColorMatrix>
        </filter>
    </defs>
    <g id="Design-Update" stroke="none" stroke-width="1" fill="none" fill-rule="evenodd">
        <g id="Mobile" transform="translate(-21.000000, -3846.000000)">
            <g id="footer" transform="translate(-6.000000, 3719.000000)">
                <g id="mobile-android-light" transform="translate(24.000000, 88.000000)" filter="url(#filter-1)">
                    <g transform="translate(3.000000, 39.000000)">
                        <path d="M9.8,23.625 L6.2,23.625 C5.87,23.625 5.6,23.3402344 5.6,22.9921875 L5.6,22.5703125 C5.6,22.2222656 5.87,21.9375 6.2,21.9375 L9.8,21.9375 C10.13,21.9375 10.4,22.2222656 10.4,22.5703125 L10.4,22.9921875 C10.4,23.3402344 10.13,23.625 9.8,23.625 Z M16,2.53125 L16,24.46875 C16,25.8662109 14.925,27 13.6,27 L2.4,27 C1.075,27 0,25.8662109 0,24.46875 L0,2.53125 C0,1.13378906 1.075,0 2.4,0 L13.6,0 C14.925,0 16,1.13378906 16,2.53125 Z M14.4,2.53125 C14.4,2.0671875 14.04,1.6875 13.6,1.6875 L2.4,1.6875 C1.96,1.6875 1.6,2.0671875 1.6,2.53125 L1.6,24.46875 C1.6,24.9328125 1.96,25.3125 2.4,25.3125 L13.6,25.3125 C14.04,25.3125 14.4,24.9328125 14.4,24.46875 L14.4,2.53125 Z" id="Shape" fill="#EE6C4D" fill-rule="nonzero"></path>
                    </g>
                </g>
            </g>
        </g>
    </g>
</svg>