<?xml version="1.0" encoding="UTF-8"?>
<svg width="23px" height="23px" viewBox="0 0 23 23" version="1.1" xmlns="http://www.w3.org/2000/svg" xmlns:xlink="http://www.w3.org/1999/xlink">
    <title>twitter-square-brands</title>
    <defs>
        <filter id="filter-1">
            <feColorMatrix in="SourceGraphic" type="matrix" values="0 0 0 0 0.737255 0 0 0 0 0.694118 0 0 0 0 0.627451 0 0 0 1.000000 0"></feColorMatrix>
        </filter>
    </defs>
    <g id="Design-Update" stroke="none" stroke-width="1" fill="none" fill-rule="evenodd">
        <g id="Mobile" transform="translate(-55.000000, -4088.000000)">
            <g id="footer" transform="translate(-6.000000, 3719.000000)">
                <g id="twitter-square-brands" transform="translate(22.000000, 369.000000)" filter="url(#filter-1)">
                    <g transform="translate(39.000000, 0.000000)">
                        <path d="M19.6428571,0 L2.35714286,0 C1.05580357,0 0,1.05580357 0,2.35714286 L0,19.6428571 C0,20.9441964 1.05580357,22 2.35714286,22 L19.6428571,22 C20.9441964,22 22,20.9441964 22,19.6428571 L22,2.35714286 C22,1.05580357 20.9441964,0 19.6428571,0 Z M17.2415179,7.79821429 C17.2513393,7.93571429 17.2513393,8.078125 17.2513393,8.215625 C17.2513393,12.4732143 14.0102679,17.3790179 8.08794643,17.3790179 C6.26116071,17.3790179 4.56696429,16.8486607 3.14285714,15.9352679 C3.403125,15.9647321 3.65357143,15.9745536 3.91875,15.9745536 C5.42633929,15.9745536 6.81116071,15.4638393 7.91607143,14.5995536 C6.50178571,14.5700893 5.31339286,13.6419643 4.90580357,12.3651786 C5.40178571,12.4388393 5.84866071,12.4388393 6.359375,12.30625 C4.88616071,12.0066964 3.78125,10.7102679 3.78125,9.14375 L3.78125,9.10446429 C4.20848214,9.34508929 4.709375,9.49241071 5.23482143,9.51205357 C4.33755936,8.9152234 3.79912863,7.90843169 3.80089286,6.83080357 C3.80089286,6.23169643 3.95803571,5.68169643 4.23794643,5.20535714 C5.82410714,7.15982143 8.20580357,8.43660714 10.8772321,8.57410714 C10.4205357,6.38883929 12.0558036,4.61607143 14.0200893,4.61607143 C14.9482143,4.61607143 15.7830357,5.00401786 16.3723214,5.63258929 C17.0991071,5.49508929 17.7964286,5.225 18.4151786,4.85669643 C18.1745536,5.603125 17.66875,6.23169643 17.0008929,6.62946429 C17.6491071,6.56071429 18.2776786,6.37901786 18.8571429,6.12857143 C18.4200893,6.771875 17.8700893,7.34151786 17.2415179,7.79821429 L17.2415179,7.79821429 Z" id="Shape" fill="#FFFFFF" fill-rule="nonzero"></path>
                    </g>
                </g>
            </g>
        </g>
    </g>
</svg>