<?xml version="1.0" encoding="UTF-8"?>
<svg width="23px" height="23px" viewBox="0 0 23 23" version="1.1" xmlns="http://www.w3.org/2000/svg" xmlns:xlink="http://www.w3.org/1999/xlink">
    <title>youtube-square-brands</title>
    <defs>
        <filter id="filter-1">
            <feColorMatrix in="SourceGraphic" type="matrix" values="0 0 0 0 0.737255 0 0 0 0 0.694118 0 0 0 0 0.627451 0 0 0 1.000000 0"></feColorMatrix>
        </filter>
    </defs>
    <g id="Design-Update" stroke="none" stroke-width="1" fill="none" fill-rule="evenodd">
        <g id="Mobile" transform="translate(-16.000000, -4088.000000)">
            <g id="footer" transform="translate(-6.000000, 3719.000000)">
                <g id="youtube-square-brands" transform="translate(22.000000, 369.000000)" filter="url(#filter-1)">
                    <g>
                        <path d="M9.17321429,8.353125 L13.8482143,11.0098214 L9.17321429,13.6665179 L9.17321429,8.353125 Z M22,2.35714286 L22,19.6428571 C22,20.9441964 20.9441964,22 19.6428571,22 L2.35714286,22 C1.05580357,22 0,20.9441964 0,19.6428571 L0,2.35714286 C0,1.05580357 1.05580357,0 2.35714286,0 L19.6428571,0 C20.9441964,0 22,1.05580357 22,2.35714286 Z M19.9375,11.0147321 C19.9375,11.0147321 19.9375,8.08794643 19.5642857,6.68348214 C19.3580357,5.90758929 18.7540179,5.29866071 17.9830357,5.09241071 C16.5933036,4.71428571 11,4.71428571 11,4.71428571 C11,4.71428571 5.40669643,4.71428571 4.01696429,5.09241071 C3.24598214,5.29866071 2.64196429,5.90758929 2.43571429,6.68348214 C2.0625,8.08303571 2.0625,11.0147321 2.0625,11.0147321 C2.0625,11.0147321 2.0625,13.9415179 2.43571429,15.3459821 C2.64196429,16.121875 3.24598214,16.70625 4.01696429,16.9125 C5.40669643,17.2857143 11,17.2857143 11,17.2857143 C11,17.2857143 16.5933036,17.2857143 17.9830357,16.9075893 C18.7540179,16.7013393 19.3580357,16.1169643 19.5642857,15.3410714 C19.9375,13.9415179 19.9375,11.0147321 19.9375,11.0147321 L19.9375,11.0147321 Z" id="Shape" fill="#FFFFFF" fill-rule="nonzero"></path>
                    </g>
                </g>
            </g>
        </g>
    </g>
</svg>